<svg xmlns="http://www.w3.org/2000/svg" xmlns:xlink="http://www.w3.org/1999/xlink" width="1800" zoomAndPan="magnify" viewBox="0 0 1350 449.999984" height="600" preserveAspectRatio="xMidYMid meet" version="1.0"><defs><g/><clipPath id="c2260d5fcc"><path d="M 14.628906 15.050781 L 434.628906 15.050781 L 434.628906 435 L 14.628906 435 Z M 14.628906 15.050781 " clip-rule="nonzero"/></clipPath></defs><path fill="#282828" d="M 300.128906 135.867188 L 196.386719 278.097656 L 147.269531 229.308594 C 140.605469 222.695312 116.644531 246.816406 123.308594 253.433594 L 186.472656 316.175781 C 189.671875 319.351562 193.984375 321.109375 198.453125 321.109375 C 198.898438 321.109375 199.351562 321.097656 199.800781 321.058594 C 204.742188 320.667969 209.265625 318.132812 212.1875 314.132812 L 327.601562 155.902344 C 333.132812 148.316406 305.664062 128.28125 300.128906 135.867188 " fill-opacity="1" fill-rule="nonzero"/><path fill="#282828" d="M 224.578125 411.386719 C 121.800781 411.386719 38.191406 327.769531 38.191406 224.996094 C 38.191406 122.222656 121.800781 38.609375 224.578125 38.609375 C 327.351562 38.609375 410.964844 122.222656 410.964844 224.996094 C 410.964844 327.769531 327.351562 411.386719 224.578125 411.386719 Z M 412.667969 145.535156 C 402.386719 121.226562 387.667969 99.398438 368.921875 80.652344 C 350.179688 61.90625 328.347656 47.1875 304.039062 36.90625 C 278.867188 26.257812 252.132812 20.859375 224.578125 20.859375 C 197.023438 20.859375 170.289062 26.257812 145.113281 36.90625 C 120.804688 47.1875 98.976562 61.90625 80.230469 80.652344 C 61.484375 99.398438 46.769531 121.226562 36.484375 145.535156 C 25.839844 170.707031 20.441406 197.445312 20.441406 224.996094 C 20.441406 252.550781 25.839844 279.289062 36.484375 304.460938 C 46.769531 328.769531 61.484375 350.597656 80.230469 369.34375 C 98.976562 388.089844 120.804688 402.804688 145.113281 413.089844 C 170.289062 423.734375 197.023438 429.132812 224.578125 429.132812 C 252.132812 429.132812 278.867188 423.734375 304.039062 413.089844 C 328.347656 402.804688 350.179688 388.089844 368.921875 369.34375 C 387.667969 350.597656 402.386719 328.769531 412.667969 304.460938 C 423.316406 279.289062 428.714844 252.550781 428.714844 224.996094 C 428.714844 197.445312 423.316406 170.707031 412.667969 145.535156 " fill-opacity="1" fill-rule="nonzero"/><g clip-path="url(#c2260d5fcc)"><path fill="#282828" d="M 224.578125 44.417969 C 125.007812 44.417969 44 125.425781 44 224.996094 C 44 324.566406 125.007812 405.574219 224.578125 405.574219 C 324.152344 405.574219 405.15625 324.566406 405.15625 224.996094 C 405.15625 125.425781 324.152344 44.417969 224.578125 44.417969 Z M 224.578125 417.195312 C 118.597656 417.195312 32.378906 330.972656 32.378906 224.996094 C 32.378906 119.019531 118.597656 32.796875 224.578125 32.796875 C 330.554688 32.796875 416.777344 119.019531 416.777344 224.996094 C 416.777344 330.972656 330.554688 417.195312 224.578125 417.195312 Z M 224.578125 26.667969 C 197.804688 26.667969 171.832031 31.914062 147.378906 42.253906 C 123.761719 52.246094 102.554688 66.542969 84.339844 84.757812 C 66.125 102.96875 51.828125 124.179688 41.835938 147.796875 C 31.496094 172.25 26.25 198.226562 26.25 224.996094 C 26.25 251.769531 31.496094 277.742188 41.835938 302.195312 C 51.828125 325.8125 66.125 347.023438 84.339844 365.234375 C 102.554688 383.449219 123.761719 397.746094 147.378906 407.738281 C 171.832031 418.082031 197.808594 423.328125 224.578125 423.328125 C 251.351562 423.328125 277.324219 418.082031 301.777344 407.738281 C 325.394531 397.746094 346.605469 383.449219 364.820312 365.234375 C 383.03125 347.023438 397.332031 325.8125 407.320312 302.195312 C 417.660156 277.742188 422.910156 251.769531 422.910156 224.996094 C 422.910156 198.226562 417.660156 172.25 407.320312 147.796875 C 397.332031 124.179688 383.03125 102.96875 364.820312 84.757812 C 346.605469 66.542969 325.394531 52.246094 301.777344 42.253906 C 277.324219 31.914062 251.351562 26.667969 224.578125 26.667969 Z M 224.578125 434.945312 C 196.242188 434.945312 168.746094 429.390625 142.851562 418.441406 C 117.851562 407.867188 95.398438 392.726562 76.121094 373.453125 C 56.847656 354.175781 41.710938 331.726562 31.136719 306.722656 C 20.183594 280.828125 14.628906 253.332031 14.628906 224.996094 C 14.628906 196.660156 20.183594 169.164062 31.136719 143.269531 C 41.710938 118.269531 56.847656 95.816406 76.121094 76.539062 C 95.398438 57.261719 117.851562 42.125 142.851562 31.554688 C 168.746094 20.601562 196.242188 15.046875 224.578125 15.046875 C 252.914062 15.046875 280.414062 20.601562 306.304688 31.554688 C 331.308594 42.125 353.757812 57.261719 373.035156 76.539062 C 392.308594 95.816406 407.449219 118.265625 418.023438 143.269531 C 428.972656 169.164062 434.527344 196.660156 434.527344 224.996094 C 434.527344 253.332031 428.972656 280.828125 418.023438 306.722656 C 407.449219 331.726562 392.308594 354.175781 373.035156 373.453125 C 353.757812 392.726562 331.308594 407.867188 306.304688 418.441406 C 280.410156 429.390625 252.914062 434.945312 224.578125 434.945312 " fill-opacity="1" fill-rule="nonzero"/></g><g fill="#212121" fill-opacity="1"><g transform="translate(455.831845, 286.784)"><g><path d="M 8.578125 -193.890625 L 62.078125 -193.890625 C 75.921875 -193.890625 86.300781 -190.050781 93.21875 -182.375 C 100.144531 -174.707031 103.679688 -163.347656 103.828125 -148.296875 L 104.28125 -57.5625 C 104.425781 -38.445312 101.113281 -24.070312 94.34375 -14.4375 C 87.570312 -4.8125 76.363281 0 60.71875 0 L 8.578125 0 Z M 54.390625 -34.3125 C 61.460938 -34.3125 65 -37.769531 65 -44.6875 L 65 -144.6875 C 65 -149.050781 64.660156 -152.320312 63.984375 -154.5 C 63.304688 -156.6875 62.066406 -158.15625 60.265625 -158.90625 C 58.460938 -159.65625 55.679688 -160.03125 51.921875 -160.03125 L 47.625 -160.03125 L 47.625 -34.3125 Z M 54.390625 -34.3125 "/></g></g></g><g fill="#212121" fill-opacity="1"><g transform="translate(567.111587, 286.784)"><g><path d="M 8.578125 0 L 8.578125 -193.890625 L 86.21875 -193.890625 L 86.21875 -156.421875 L 48.078125 -156.421875 L 48.078125 -118.734375 L 84.640625 -118.734375 L 84.640625 -82.15625 L 48.078125 -82.15625 L 48.078125 -37.6875 L 88.703125 -37.6875 L 88.703125 0 Z M 8.578125 0 "/></g></g></g><g fill="#212121" fill-opacity="1"><g transform="translate(660.108044, 286.784)"><g><path d="M 8.578125 0 L 8.578125 -193.890625 L 86.21875 -193.890625 L 86.21875 -156.203125 L 47.625 -156.203125 L 47.625 -125.28125 L 84.1875 -125.28125 L 84.1875 -88.03125 L 47.625 -88.03125 L 47.625 0 Z M 8.578125 0 "/></g></g></g><g fill="#212121" fill-opacity="1"><g transform="translate(750.170132, 286.784)"><g><path d="M 6.765625 0 L 6.765625 -193.890625 L 44.234375 -193.890625 L 44.234375 0 Z M 6.765625 0 "/></g></g></g><g fill="#212121" fill-opacity="1"><g transform="translate(801.408463, 286.784)"><g><path d="M 8.578125 0 L 8.578125 -193.890625 L 48.53125 -193.890625 L 66.359375 -101.125 L 66.359375 -193.890625 L 103.828125 -193.890625 L 103.828125 0 L 65.90625 0 L 46.5 -97.0625 L 46.5 0 Z M 8.578125 0 "/></g></g></g><g fill="#212121" fill-opacity="1"><g transform="translate(913.816856, 286.784)"><g><path d="M 6.765625 0 L 6.765625 -193.890625 L 44.234375 -193.890625 L 44.234375 0 Z M 6.765625 0 "/></g></g></g><g fill="#212121" fill-opacity="1"><g transform="translate(965.055164, 286.784)"><g><path d="M 25.28125 0 L 25.28125 -156.65625 L 2.25 -156.65625 L 2.25 -193.890625 L 87.125 -193.890625 L 87.125 -156.65625 L 64.109375 -156.65625 L 64.109375 0 Z M 25.28125 0 "/></g></g></g><g fill="#212121" fill-opacity="1"><g transform="translate(1054.440152, 286.784)"><g><path d="M 6.765625 0 L 6.765625 -193.890625 L 44.234375 -193.890625 L 44.234375 0 Z M 6.765625 0 "/></g></g></g><g fill="#212121" fill-opacity="1"><g transform="translate(1105.678459, 286.784)"><g><path d="M 26.40625 0 L 2.484375 -194.125 L 39.5 -194.125 L 53.71875 -62.078125 L 66.359375 -194.125 L 103.375 -194.125 L 79.453125 0 Z M 26.40625 0 "/></g></g></g><g fill="#212121" fill-opacity="1"><g transform="translate(1211.540923, 286.784)"><g><path d="M 8.578125 0 L 8.578125 -193.890625 L 86.21875 -193.890625 L 86.21875 -156.421875 L 48.078125 -156.421875 L 48.078125 -118.734375 L 84.640625 -118.734375 L 84.640625 -82.15625 L 48.078125 -82.15625 L 48.078125 -37.6875 L 88.703125 -37.6875 L 88.703125 0 Z M 8.578125 0 "/></g></g></g><g fill="#212121" fill-opacity="1"><g transform="translate(455.831845, 366.211642)"><g><path d="M 21.0625 0 L 2.03125 -69.578125 L 10.59375 -69.578125 L 25.140625 -12.90625 L 25.828125 -12.90625 L 40.640625 -69.578125 L 50.140625 -69.578125 L 64.953125 -12.90625 L 65.640625 -12.90625 L 80.171875 -69.578125 L 88.734375 -69.578125 L 69.71875 0 L 61.015625 0 L 45.65625 -55.453125 L 45.125 -55.453125 L 29.765625 0 Z M 21.0625 0 "/></g></g></g><g fill="#212121" fill-opacity="1"><g transform="translate(551.491319, 366.211642)"><g><path d="M 8.421875 0 L 8.421875 -69.578125 L 50.421875 -69.578125 L 50.421875 -62.109375 L 16.84375 -62.109375 L 16.84375 -38.59375 L 48.25 -38.59375 L 48.25 -31.125 L 16.84375 -31.125 L 16.84375 -7.46875 L 50.96875 -7.46875 L 50.96875 0 Z M 8.421875 0 "/></g></g></g><g fill="#212121" fill-opacity="1"><g transform="translate(613.584026, 366.211642)"><g><path d="M 8.421875 0 L 8.421875 -69.578125 L 32.75 -69.578125 C 37.59375 -69.578125 41.585938 -68.742188 44.734375 -67.078125 C 47.890625 -65.410156 50.238281 -63.175781 51.78125 -60.375 C 53.320312 -57.582031 54.09375 -54.488281 54.09375 -51.09375 C 54.09375 -48.101562 53.5625 -45.632812 52.5 -43.6875 C 51.445312 -41.738281 50.066406 -40.195312 48.359375 -39.0625 C 46.648438 -37.9375 44.800781 -37.101562 42.8125 -36.5625 L 42.8125 -35.875 C 44.9375 -35.738281 47.070312 -34.988281 49.21875 -33.625 C 51.375 -32.269531 53.175781 -30.320312 54.625 -27.78125 C 56.082031 -25.25 56.8125 -22.148438 56.8125 -18.484375 C 56.8125 -14.992188 56.015625 -11.851562 54.421875 -9.0625 C 52.835938 -6.28125 50.332031 -4.070312 46.90625 -2.4375 C 43.488281 -0.8125 39.039062 0 33.5625 0 Z M 16.84375 -7.46875 L 33.5625 -7.46875 C 39.070312 -7.46875 42.984375 -8.535156 45.296875 -10.671875 C 47.617188 -12.816406 48.78125 -15.421875 48.78125 -18.484375 C 48.78125 -20.835938 48.179688 -23.015625 46.984375 -25.015625 C 45.785156 -27.023438 44.078125 -28.632812 41.859375 -29.84375 C 39.640625 -31.0625 37.007812 -31.671875 33.96875 -31.671875 L 16.84375 -31.671875 Z M 16.84375 -39 L 32.484375 -39 C 36.285156 -39 39.5 -40.097656 42.125 -42.296875 C 44.75 -44.492188 46.0625 -47.425781 46.0625 -51.09375 C 46.0625 -54.15625 45 -56.753906 42.875 -58.890625 C 40.75 -61.035156 37.375 -62.109375 32.75 -62.109375 L 16.84375 -62.109375 Z M 16.84375 -39 "/></g></g></g><g fill="#212121" fill-opacity="1"><g transform="translate(680.704936, 366.211642)"><g><path d="M 46.484375 -52.1875 C 46.066406 -55.625 44.410156 -58.296875 41.515625 -60.203125 C 38.617188 -62.109375 35.0625 -63.0625 30.84375 -63.0625 C 26.226562 -63.0625 22.515625 -61.96875 19.703125 -59.78125 C 16.898438 -57.59375 15.5 -54.832031 15.5 -51.5 C 15.5 -49.007812 16.257812 -47 17.78125 -45.46875 C 19.3125 -43.945312 21.125 -42.757812 23.21875 -41.90625 C 25.3125 -41.0625 27.222656 -40.410156 28.953125 -39.953125 L 36.015625 -38.046875 C 37.828125 -37.578125 39.847656 -36.921875 42.078125 -36.078125 C 44.304688 -35.242188 46.445312 -34.109375 48.5 -32.671875 C 50.550781 -31.234375 52.242188 -29.390625 53.578125 -27.140625 C 54.910156 -24.898438 55.578125 -22.148438 55.578125 -18.890625 C 55.578125 -15.128906 54.597656 -11.726562 52.640625 -8.6875 C 50.679688 -5.65625 47.828125 -3.242188 44.078125 -1.453125 C 40.328125 0.328125 35.78125 1.21875 30.4375 1.21875 C 22.96875 1.21875 17.035156 -0.546875 12.640625 -4.078125 C 8.242188 -7.609375 5.84375 -12.226562 5.4375 -17.9375 L 14.140625 -17.9375 C 14.359375 -15.3125 15.242188 -13.144531 16.796875 -11.4375 C 18.347656 -9.726562 20.316406 -8.457031 22.703125 -7.625 C 25.097656 -6.800781 27.675781 -6.390625 30.4375 -6.390625 C 33.65625 -6.390625 36.539062 -6.914062 39.09375 -7.96875 C 41.65625 -9.019531 43.679688 -10.488281 45.171875 -12.375 C 46.671875 -14.269531 47.421875 -16.488281 47.421875 -19.03125 C 47.421875 -21.332031 46.773438 -23.207031 45.484375 -24.65625 C 44.203125 -26.113281 42.503906 -27.296875 40.390625 -28.203125 C 38.285156 -29.109375 36.007812 -29.898438 33.5625 -30.578125 L 25 -33.015625 C 19.5625 -34.585938 15.257812 -36.820312 12.09375 -39.71875 C 8.925781 -42.613281 7.34375 -46.40625 7.34375 -51.09375 C 7.34375 -54.988281 8.398438 -58.390625 10.515625 -61.296875 C 12.628906 -64.210938 15.484375 -66.476562 19.078125 -68.09375 C 22.671875 -69.71875 26.6875 -70.53125 31.125 -70.53125 C 35.601562 -70.53125 39.585938 -69.726562 43.078125 -68.125 C 46.566406 -66.53125 49.335938 -64.351562 51.390625 -61.59375 C 53.441406 -58.832031 54.519531 -55.695312 54.625 -52.1875 Z M 46.484375 -52.1875 "/></g></g></g><g fill="#212121" fill-opacity="1"><g transform="translate(746.602781, 366.211642)"><g><path d="M 16.84375 -69.578125 L 16.84375 0 L 8.421875 0 L 8.421875 -69.578125 Z M 16.84375 -69.578125 "/></g></g></g><g fill="#212121" fill-opacity="1"><g transform="translate(776.759494, 366.211642)"><g><path d="M 4.625 -62.109375 L 4.625 -69.578125 L 56.8125 -69.578125 L 56.8125 -62.109375 L 34.921875 -62.109375 L 34.921875 0 L 26.5 0 L 26.5 -62.109375 Z M 4.625 -62.109375 "/></g></g></g><g fill="#212121" fill-opacity="1"><g transform="translate(843.065046, 366.211642)"><g><path d="M 8.421875 0 L 8.421875 -69.578125 L 50.421875 -69.578125 L 50.421875 -62.109375 L 16.84375 -62.109375 L 16.84375 -38.59375 L 48.25 -38.59375 L 48.25 -31.125 L 16.84375 -31.125 L 16.84375 -7.46875 L 50.96875 -7.46875 L 50.96875 0 Z M 8.421875 0 "/></g></g></g><g fill="#212121" fill-opacity="1"><g transform="translate(905.157753, 366.211642)"><g/></g></g><g fill="#212121" fill-opacity="1"><g transform="translate(936.945227, 366.211642)"><g><path d="M 29.890625 0 L 8.421875 0 L 8.421875 -69.578125 L 30.84375 -69.578125 C 37.59375 -69.578125 43.367188 -68.1875 48.171875 -65.40625 C 52.972656 -62.632812 56.65625 -58.660156 59.21875 -53.484375 C 61.78125 -48.316406 63.0625 -42.128906 63.0625 -34.921875 C 63.0625 -27.671875 61.769531 -21.4375 59.1875 -16.21875 C 56.601562 -11 52.84375 -6.988281 47.90625 -4.1875 C 42.96875 -1.394531 36.960938 0 29.890625 0 Z M 16.84375 -7.46875 L 29.359375 -7.46875 C 37.984375 -7.46875 44.394531 -9.921875 48.59375 -14.828125 C 52.800781 -19.734375 54.90625 -26.429688 54.90625 -34.921875 C 54.90625 -43.347656 52.84375 -49.984375 48.71875 -54.828125 C 44.59375 -59.679688 38.457031 -62.109375 30.3125 -62.109375 L 16.84375 -62.109375 Z M 16.84375 -7.46875 "/></g></g></g><g fill="#212121" fill-opacity="1"><g transform="translate(1010.589234, 366.211642)"><g><path d="M 8.421875 0 L 8.421875 -69.578125 L 50.421875 -69.578125 L 50.421875 -62.109375 L 16.84375 -62.109375 L 16.84375 -38.59375 L 48.25 -38.59375 L 48.25 -31.125 L 16.84375 -31.125 L 16.84375 -7.46875 L 50.96875 -7.46875 L 50.96875 0 Z M 8.421875 0 "/></g></g></g><g fill="#212121" fill-opacity="1"><g transform="translate(1072.681941, 366.211642)"><g><path d="M 46.484375 -52.1875 C 46.066406 -55.625 44.410156 -58.296875 41.515625 -60.203125 C 38.617188 -62.109375 35.0625 -63.0625 30.84375 -63.0625 C 26.226562 -63.0625 22.515625 -61.96875 19.703125 -59.78125 C 16.898438 -57.59375 15.5 -54.832031 15.5 -51.5 C 15.5 -49.007812 16.257812 -47 17.78125 -45.46875 C 19.3125 -43.945312 21.125 -42.757812 23.21875 -41.90625 C 25.3125 -41.0625 27.222656 -40.410156 28.953125 -39.953125 L 36.015625 -38.046875 C 37.828125 -37.578125 39.847656 -36.921875 42.078125 -36.078125 C 44.304688 -35.242188 46.445312 -34.109375 48.5 -32.671875 C 50.550781 -31.234375 52.242188 -29.390625 53.578125 -27.140625 C 54.910156 -24.898438 55.578125 -22.148438 55.578125 -18.890625 C 55.578125 -15.128906 54.597656 -11.726562 52.640625 -8.6875 C 50.679688 -5.65625 47.828125 -3.242188 44.078125 -1.453125 C 40.328125 0.328125 35.78125 1.21875 30.4375 1.21875 C 22.96875 1.21875 17.035156 -0.546875 12.640625 -4.078125 C 8.242188 -7.609375 5.84375 -12.226562 5.4375 -17.9375 L 14.140625 -17.9375 C 14.359375 -15.3125 15.242188 -13.144531 16.796875 -11.4375 C 18.347656 -9.726562 20.316406 -8.457031 22.703125 -7.625 C 25.097656 -6.800781 27.675781 -6.390625 30.4375 -6.390625 C 33.65625 -6.390625 36.539062 -6.914062 39.09375 -7.96875 C 41.65625 -9.019531 43.679688 -10.488281 45.171875 -12.375 C 46.671875 -14.269531 47.421875 -16.488281 47.421875 -19.03125 C 47.421875 -21.332031 46.773438 -23.207031 45.484375 -24.65625 C 44.203125 -26.113281 42.503906 -27.296875 40.390625 -28.203125 C 38.285156 -29.109375 36.007812 -29.898438 33.5625 -30.578125 L 25 -33.015625 C 19.5625 -34.585938 15.257812 -36.820312 12.09375 -39.71875 C 8.925781 -42.613281 7.34375 -46.40625 7.34375 -51.09375 C 7.34375 -54.988281 8.398438 -58.390625 10.515625 -61.296875 C 12.628906 -64.210938 15.484375 -66.476562 19.078125 -68.09375 C 22.671875 -69.71875 26.6875 -70.53125 31.125 -70.53125 C 35.601562 -70.53125 39.585938 -69.726562 43.078125 -68.125 C 46.566406 -66.53125 49.335938 -64.351562 51.390625 -61.59375 C 53.441406 -58.832031 54.519531 -55.695312 54.625 -52.1875 Z M 46.484375 -52.1875 "/></g></g></g><g fill="#212121" fill-opacity="1"><g transform="translate(1138.579809, 366.211642)"><g><path d="M 16.84375 -69.578125 L 16.84375 0 L 8.421875 0 L 8.421875 -69.578125 Z M 16.84375 -69.578125 "/></g></g></g><g fill="#212121" fill-opacity="1"><g transform="translate(1168.736499, 366.211642)"><g><path d="M 55.984375 -47.84375 C 54.515625 -52.414062 52.097656 -56.023438 48.734375 -58.671875 C 45.367188 -61.328125 41.175781 -62.65625 36.15625 -62.65625 C 32.03125 -62.65625 28.28125 -61.585938 24.90625 -59.453125 C 21.53125 -57.328125 18.84375 -54.191406 16.84375 -50.046875 C 14.851562 -45.898438 13.859375 -40.816406 13.859375 -34.796875 C 13.859375 -28.765625 14.863281 -23.675781 16.875 -19.53125 C 18.894531 -15.382812 21.625 -12.25 25.0625 -10.125 C 28.507812 -8 32.382812 -6.9375 36.6875 -6.9375 C 40.601562 -6.9375 44.070312 -7.765625 47.09375 -9.421875 C 50.125 -11.085938 52.5 -13.441406 54.21875 -16.484375 C 55.945312 -19.535156 56.851562 -23.144531 56.9375 -27.3125 L 38.59375 -27.3125 L 38.59375 -34.796875 L 65.09375 -34.796875 L 65.09375 -27.3125 C 65.09375 -21.582031 63.875 -16.597656 61.4375 -12.359375 C 59.007812 -8.128906 55.660156 -4.851562 51.390625 -2.53125 C 47.117188 -0.207031 42.21875 0.953125 36.6875 0.953125 C 30.53125 0.953125 25.125 -0.492188 20.46875 -3.390625 C 15.8125 -6.296875 12.1875 -10.421875 9.59375 -15.765625 C 7 -21.109375 5.703125 -27.453125 5.703125 -34.796875 C 5.703125 -42.128906 7 -48.46875 9.59375 -53.8125 C 12.1875 -59.15625 15.773438 -63.273438 20.359375 -66.171875 C 24.953125 -69.078125 30.21875 -70.53125 36.15625 -70.53125 C 41.039062 -70.53125 45.476562 -69.570312 49.46875 -67.65625 C 53.457031 -65.75 56.773438 -63.085938 59.421875 -59.671875 C 62.066406 -56.265625 63.820312 -52.320312 64.6875 -47.84375 Z M 55.984375 -47.84375 "/></g></g></g><g fill="#212121" fill-opacity="1"><g transform="translate(1244.690793, 366.211642)"><g><path d="M 63.59375 -69.578125 L 63.59375 0 L 55.453125 0 L 17.53125 -54.625 L 16.84375 -54.625 L 16.84375 0 L 8.421875 0 L 8.421875 -69.578125 L 16.578125 -69.578125 L 54.625 -14.8125 L 55.3125 -14.8125 L 55.3125 -69.578125 Z M 63.59375 -69.578125 "/></g></g></g></svg>