<?xml version="1.0" standalone="no"?>
<!DOCTYPE svg PUBLIC "-//W3C//DTD SVG 20010904//EN"
 "http://www.w3.org/TR/2001/REC-SVG-20010904/DTD/svg10.dtd">
<svg version="1.0" xmlns="http://www.w3.org/2000/svg"
 width="1250.000000pt" height="1250.000000pt" viewBox="0 0 1250.000000 1250.000000"
 preserveAspectRatio="xMidYMid meet">
<metadata>
Created by potrace 1.14, written by Peter Selinger 2001-2017
</metadata>
<g transform="translate(0.000000,1250.000000) scale(0.100000,-0.100000)"
fill="#000000" stroke="none">
<path d="M0 6250 l0 -6250 6250 0 6250 0 0 6250 0 6250 -6250 0 -6250 0 0
-6250z m9255 14 c1650 -2858 3001 -5203 3003 -5210 3 -12 -944 -14 -6013 -14
-3309 0 -6014 3 -6012 8 80 145 6012 10412 6016 10412 3 0 1356 -2338 3006
-5196z"/>
<path d="M3518 6098 l-2727 -4723 2729 -3 c1502 -1 3958 -1 5458 0 l2729 3
-2726 4722 c-1499 2597 -2728 4723 -2731 4723 -3 0 -1233 -2125 -2732 -4722z
m3352 3134 c0 -4 -52 -940 -115 -2080 -63 -1140 -115 -2075 -115 -2077 0 -3
-175 -5 -390 -5 -365 0 -390 1 -390 18 0 28 -219 3989 -225 4075 l-5 77 620 0
c341 0 620 -4 620 -8z m-495 -4307 c110 -23 189 -68 280 -160 148 -147 202
-323 160 -519 -57 -271 -288 -456 -566 -456 -192 0 -367 92 -472 247 -165 241
-128 555 88 751 138 126 324 176 510 137z m-3638 -1478 c114 -38 193 -120 235
-245 22 -66 23 -77 26 -660 2 -489 0 -607 -12 -670 -32 -171 -91 -266 -196
-320 -36 -18 -89 -37 -119 -42 -29 -6 -186 -10 -347 -10 l-294 0 0 986 0 985
328 -3 c274 -4 335 -7 379 -21z m1213 -167 l0 -190 -195 0 -195 0 0 -190 0
-190 185 0 185 0 0 -190 0 -190 -185 0 -185 0 0 -225 0 -225 205 0 205 0 0
-190 0 -190 -405 0 -405 0 0 985 0 985 395 0 395 0 0 -190z m940 -5 l0 -195
-195 0 -195 0 0 -155 0 -155 185 0 185 0 0 -190 0 -190 -185 0 -185 0 0 -445
0 -445 -200 0 -200 0 0 978 c0 538 3 982 7 985 3 4 181 7 395 7 l388 0 0 -195z
m490 -790 l0 -985 -190 0 -190 0 0 985 0 985 190 0 190 0 0 -985z m649 533
l86 -448 3 450 2 450 190 0 190 0 0 -985 0 -985 -189 0 c-172 0 -190 2 -195
18 -3 9 -47 226 -98 482 l-93 465 -3 -482 -2 -483 -190 0 -190 0 0 985 0 985
202 -2 201 -3 86 -447z m1011 -533 l0 -985 -190 0 -190 0 0 985 0 985 190 0
190 0 0 -985z m950 795 l0 -190 -115 0 -115 0 0 -795 0 -795 -195 0 -195 0 0
795 0 795 -120 0 -120 0 0 190 0 190 430 0 430 0 0 -190z m480 -795 l0 -985
-190 0 -190 0 0 985 0 985 190 0 190 0 0 -985z m470 978 c0 -21 140 -1296 143
-1299 1 -1 29 275 61 614 32 339 60 634 63 655 l6 37 187 0 188 0 -6 -42 c-3
-24 -57 -466 -121 -983 l-116 -940 -270 -3 -270 -2 -118 962 c-65 530 -120
973 -123 986 l-4 22 190 0 c104 0 190 -3 190 -7z m1550 -183 l0 -190 -195 0
-195 0 0 -190 0 -190 185 0 185 0 0 -190 0 -190 -185 0 -185 0 0 -225 0 -225
205 0 205 0 0 -190 0 -190 -405 0 -405 0 0 985 0 985 395 0 395 0 0 -190z"/>
<path d="M2430 2485 l0 -635 50 0 c60 0 108 22 115 53 3 12 4 282 3 600 l-3
579 -24 19 c-17 14 -39 19 -82 19 l-59 0 0 -635z"/>
</g>
</svg>
