<?xml version="1.0" standalone="no"?>
<!DOCTYPE svg PUBLIC "-//W3C//DTD SVG 20010904//EN"
 "http://www.w3.org/TR/2001/REC-SVG-20010904/DTD/svg10.dtd">
<svg version="1.0" xmlns="http://www.w3.org/2000/svg"
 width="1500.000000pt" height="1500.000000pt" viewBox="0 0 1500.000000 1500.000000"
 preserveAspectRatio="xMidYMid meet">
<metadata>
Created by potrace 1.14, written by Peter Selinger 2001-2017
</metadata>
<g transform="translate(0.000000,1500.000000) scale(0.100000,-0.100000)"
fill="#000000" stroke="none">
<path d="M1922 7498 l3 -4553 1775 0 c1864 0 1853 0 2225 46 851 104 1575 395
2175 873 161 128 428 396 558 558 498 624 800 1395 906 2313 54 459 57 985 11
1445 -111 1088 -499 1989 -1140 2648 -306 315 -593 527 -975 721 -584 297
-1158 443 -1925 491 -96 6 -852 10 -1888 10 l-1727 0 2 -4552z m3453 2892
c567 -42 1039 -198 1390 -458 105 -78 273 -237 355 -337 241 -294 418 -722
499 -1210 93 -551 91 -1240 -3 -1785 -121 -696 -394 -1196 -829 -1521 -352
-263 -773 -411 -1337 -470 -61 -6 -421 -13 -852 -16 l-748 -5 0 2906 0 2906
693 0 c380 0 755 -5 832 -10z"/>
<path d="M10845 11913 c6 -141 175 -6123 175 -6200 l0 -43 815 0 815 0 0 23
c0 12 38 1419 85 3127 47 1708 85 3133 85 3168 l0 62 -990 0 -991 0 6 -137z"/>
<path d="M11657 4936 c-356 -63 -672 -308 -807 -625 -63 -147 -73 -207 -74
-416 0 -206 12 -279 71 -420 111 -265 361 -497 638 -592 224 -76 524 -70 735
16 263 107 504 348 606 606 56 139 77 267 71 425 -11 269 -99 477 -287 673
-149 157 -326 265 -515 313 -124 32 -319 41 -438 20z"/>
</g>
</svg>
